<mxfile host="app.diagrams.net" modified="2024-01-07T09:31:52.461Z" agent="Mozilla/5.0 (Windows NT 10.0; Win64; x64) AppleWebKit/537.36 (KHTML, like Gecko) Chrome/121.0.0.0 Safari/537.36 Edg/121.0.0.0/8mqPaQuL-91" version="22.1.15" etag="NjWA-CaIQpJjl5T3zT-f" type="github">
  <diagram name="Page-1" id="Fb7V96u4vh7-PqSdE-zW">
    <mxGraphModel>
      <root>
        <mxCell id="0" />
        <mxCell id="1" parent="0" />
      </root>
    </mxGraphModel>
  </diagram>
</mxfile>
